<?xml version="1.0" encoding="UTF-8" standalone="no"?>
<svg
   xmlns:dc="http://purl.org/dc/elements/1.1/"
   xmlns:cc="http://creativecommons.org/ns#"
   xmlns:rdf="http://www.w3.org/1999/02/22-rdf-syntax-ns#"
   xmlns:svg="http://www.w3.org/2000/svg"
   xmlns="http://www.w3.org/2000/svg"
   xmlns:sodipodi="http://sodipodi.sourceforge.net/DTD/sodipodi-0.dtd"
   xmlns:inkscape="http://www.inkscape.org/namespaces/inkscape"
   width="50"
   height="50"
   id="svg3101"
   version="1.1"
   inkscape:version="0.48.3.1 r9886"
   sodipodi:docname="icon_plug.svg">
  <sodipodi:namedview
     pagecolor="#ffffff"
     bordercolor="#666666"
     borderopacity="1"
     objecttolerance="10"
     gridtolerance="10"
     guidetolerance="10"
     inkscape:pageopacity="0"
     inkscape:pageshadow="2"
     inkscape:window-width="1920"
     inkscape:window-height="1154"
     id="namedview3116"
     showgrid="false"
     inkscape:zoom="15.100077"
     inkscape:cx="-3.5101694"
     inkscape:cy="26.382447"
     inkscape:window-x="0"
     inkscape:window-y="24"
     inkscape:window-maximized="1"
     inkscape:current-layer="svg3101" />
  <title
     id="title3103">Electrical Plug</title>
  <defs
     id="defs3105">
    <linearGradient
       id="linearGradient3656">
      <stop
         stop-color="#ffffff"
         id="stop3658"
         offset="0" />
      <stop
         stop-color="#ffffff"
         stop-opacity="0"
         id="stop3660"
         offset="1" />
    </linearGradient>
  </defs>
  <metadata
     id="metadata7">image/svg+xmlSergio Luiz Araujo Silvaoutletelectricityenergypowerhomeoffice<rdf:RDF>
  <cc:Work
     rdf:about="">
    <dc:format>image/svg+xml</dc:format>
    <dc:type
       rdf:resource="http://purl.org/dc/dcmitype/StillImage" />
  </cc:Work>
</rdf:RDF>
</metadata>
  <g
     id="g3111"
     transform="matrix(0.02682592,0,0,0.02682592,-7.7337023,5.4927495)"
     style="fill:#ffffff">
    <title
       id="title3113">Layer 1</title>
    <path
       id="path2821"
       d="M 1600.1158,51.375397 C 1568.1006,11.009939 1509.7656,4.280093 1469.4004,36.295532 L 1172.7417,271.58475 1027.6914,88.70079 C 1017.5776,75.894775 996.69605,73.489273 983.9292,83.652389 L 701.29144,307.82294 C 44.74597,1018.9137 926.96873,1735.2544 1497.3828,1311.5492 l 282.6373,-224.1699 c 12.806,-10.1143 15.2113,-30.9965 5.0485,-43.7631 l -145.051,-182.88372 296.6578,-235.28912 c 40.3662,-32.01557 47.0961,-90.34918 15.0802,-130.71582 -32.0152,-40.36539 -90.3496,-47.09424 -130.7152,-15.07926 l -296.6578,235.28879 -236.0038,-297.55774 296.657,-235.28929 c 40.3662,-32.01466 47.0959,-90.349951 15.0807,-130.715193 z"
       inkscape:connector-curvature="0"
       style="fill:#ffffff;stroke-width:0.51863402000000003"
       sodipodi:nodetypes="csccccccccsssccccc" />
  </g>
</svg>
