<?xml version="1.0" encoding="UTF-8" standalone="no"?>
<svg
   xmlns:dc="http://purl.org/dc/elements/1.1/"
   xmlns:cc="http://creativecommons.org/ns#"
   xmlns:rdf="http://www.w3.org/1999/02/22-rdf-syntax-ns#"
   xmlns:svg="http://www.w3.org/2000/svg"
   xmlns="http://www.w3.org/2000/svg"
   xmlns:sodipodi="http://sodipodi.sourceforge.net/DTD/sodipodi-0.dtd"
   xmlns:inkscape="http://www.inkscape.org/namespaces/inkscape"
   version="1.0"
   width="50"
   height="50"
   viewBox="0 0 40 40"
   preserveAspectRatio="xMidYMid meet"
   id="svg2"
   inkscape:version="0.48.3.1 r9886"
   sodipodi:docname="icon_gears.svg">
  <defs
     id="defs16" />
  <sodipodi:namedview
     pagecolor="#ffffff"
     bordercolor="#666666"
     borderopacity="1"
     objecttolerance="10"
     gridtolerance="10"
     guidetolerance="10"
     inkscape:pageopacity="0"
     inkscape:pageshadow="2"
     inkscape:window-width="1920"
     inkscape:window-height="1154"
     id="namedview14"
     showgrid="false"
     inkscape:zoom="16.68772"
     inkscape:cx="22.774897"
     inkscape:cy="27.584303"
     inkscape:window-x="0"
     inkscape:window-y="24"
     inkscape:window-maximized="1"
     inkscape:current-layer="svg2" />
  <metadata
     id="metadata4">
Created by potrace 1.11, written by Peter Selinger 2001-2013
<rdf:RDF>
  <cc:Work
     rdf:about="">
    <dc:format>image/svg+xml</dc:format>
    <dc:type
       rdf:resource="http://purl.org/dc/dcmitype/StillImage" />
  </cc:Work>
</rdf:RDF>
</metadata>
  <g
     transform="matrix(0.01438544,0,0,-0.01447558,1.6136489,38.542608)"
     id="g6"
     style="fill:#ffffff;stroke:none">
    <path
       d="m 1770,2482 c -15,-16 -36,-52 -46,-80 l -19,-52 -61,0 c -34,0 -81,-3 -105,-6 l -44,-6 -30,58 c -55,105 -103,118 -227,62 -119,-56 -143,-109 -94,-213 l 23,-50 -72,-79 -73,-78 -48,15 c -89,29 -117,26 -159,-16 -37,-37 -88,-178 -78,-218 9,-38 52,-76 106,-96 27,-10 51,-22 52,-28 2,-5 6,-54 9,-107 l 5,-98 -59,-30 c -101,-51 -116,-105 -61,-220 61,-128 100,-145 218,-98 l 53,21 62,-58 c 35,-32 69,-64 76,-70 11,-10 10,-23 -6,-77 -24,-75 -19,-109 18,-146 36,-36 178,-86 219,-77 42,9 75,44 96,101 10,27 21,52 24,56 3,3 52,8 108,10 l 102,3 31,-62 c 35,-70 79,-100 133,-89 53,11 174,75 191,101 25,38 22,94 -7,152 l -26,51 42,39 c 24,22 56,57 72,77 l 30,36 66,-21 c 76,-25 108,-21 149,19 36,36 83,176 74,220 -8,40 -50,76 -114,99 l -50,18 0,76 c 0,42 -3,90 -6,106 -5,27 -2,30 56,57 71,33 96,64 94,121 -2,37 -48,150 -76,186 -36,45 -91,50 -169,15 l -54,-23 -78,71 -77,72 20,59 c 36,105 14,149 -99,195 -97,40 -152,40 -191,2 z m 42,-450 c 165,-76 263,-230 261,-412 -1,-222 -158,-406 -378,-442 -283,-47 -549,205 -515,488 12,93 27,138 71,203 50,75 101,119 184,160 114,56 259,57 377,3 z"
       id="path8"
       inkscape:connector-curvature="0"
       style="fill:#ffffff" />
    <path
       d="m 674,1098 c -12,-6 -30,-27 -39,-48 -16,-36 -19,-38 -78,-43 -34,-3 -63,-2 -65,3 -2,5 -13,24 -25,42 -30,44 -69,48 -136,13 -59,-29 -71,-56 -48,-113 l 15,-37 -43,-48 C 218,824 210,819 192,829 160,846 105,842 88,823 79,813 64,782 54,754 37,705 37,701 53,676 c 10,-14 33,-32 51,-40 33,-14 34,-16 38,-76 l 3,-62 -38,-20 C 51,450 44,421 76,350 c 32,-72 61,-88 117,-65 l 38,16 48,-42 48,-41 -13,-39 c -19,-55 -5,-85 51,-110 27,-12 61,-19 83,-17 32,3 40,8 59,46 21,43 22,44 82,47 l 61,4 20,-39 c 13,-26 29,-42 46,-46 30,-8 96,12 131,39 25,20 27,41 9,117 -5,20 2,34 34,67 36,38 43,41 66,33 64,-25 99,-8 129,63 31,74 17,109 -52,137 -32,12 -33,14 -33,76 0,53 3,64 19,69 39,12 71,46 70,73 0,40 -40,114 -70,131 -24,14 -31,13 -69,-4 l -41,-19 -44,45 c -44,43 -44,45 -33,80 17,57 4,87 -45,108 -61,26 -89,31 -113,19 z m 6,-279 C 843,745 890,538 774,402 652,260 417,287 335,454 c -66,135 -14,295 117,360 67,33 161,35 228,5 z"
       id="path10"
       inkscape:connector-curvature="0"
       style="fill:#ffffff" />
    <path
       d="m 1507,632 c -9,-10 -17,-24 -17,-30 0,-7 -16,-12 -38,-12 -32,0 -41,5 -50,25 -14,30 -36,32 -79,5 -34,-20 -39,-34 -24,-59 6,-10 2,-24 -12,-43 -18,-24 -26,-27 -53,-22 -26,5 -35,1 -48,-17 -25,-36 -21,-77 9,-91 20,-9 25,-18 25,-49 0,-29 -5,-39 -19,-44 -28,-9 -35,-39 -16,-75 19,-38 36,-45 65,-30 18,10 26,8 46,-11 19,-18 23,-29 18,-54 -7,-37 9,-53 60,-62 31,-5 37,-2 47,21 17,37 71,37 103,-1 22,-25 25,-26 54,-14 46,19 56,35 44,70 -9,25 -7,32 12,50 16,15 33,21 57,19 30,-3 36,1 51,31 19,39 10,70 -23,78 -28,8 -27,79 0,88 30,9 35,41 14,78 -16,26 -26,32 -54,32 -52,0 -81,25 -73,63 5,25 2,33 -17,45 -42,26 -64,29 -82,9 z m 27,-155 c 130,-74 75,-273 -75,-271 -113,1 -179,113 -127,213 40,78 125,102 202,58 z"
       id="path12"
       inkscape:connector-curvature="0"
       style="fill:#ffffff" />
  </g>
</svg>
